<?xml version="1.0" encoding="us-ascii" standalone="no"?><svg xmlns="http://www.w3.org/2000/svg" xmlns:xlink="http://www.w3.org/1999/xlink" contentStyleType="text/css" height="569px" preserveAspectRatio="none" style="width:339px;height:569px;background:#FFFFFF;" version="1.1" viewBox="0 0 339 569" width="339px" zoomAndPan="magnify"><defs/><g><line style="stroke:#181818;stroke-width:0.5;stroke-dasharray:5.0,5.0;" x1="22" x2="22" y1="83.6211" y2="486.8223"/><line style="stroke:#181818;stroke-width:0.5;stroke-dasharray:5.0,5.0;" x1="163" x2="163" y1="83.6211" y2="486.8223"/><line style="stroke:#181818;stroke-width:0.5;stroke-dasharray:5.0,5.0;" x1="291" x2="291" y1="83.6211" y2="486.8223"/><text fill="#000000" font-family="sans-serif" font-size="14" lengthAdjust="spacing" textLength="28" x="5" y="80.1074">&#29992;&#25143;</text><ellipse cx="22" cy="13.5" fill="#E2E2F0" rx="8" ry="8" style="stroke:#181818;stroke-width:0.5;"/><path d="M22,21.5 L22,48.5 M9,29.5 L35,29.5 M22,48.5 L9,63.5 M22,48.5 L35,63.5 " fill="none" style="stroke:#181818;stroke-width:0.5;"/><text fill="#000000" font-family="sans-serif" font-size="14" lengthAdjust="spacing" textLength="28" x="5" y="500.9297">&#29992;&#25143;</text><ellipse cx="22" cy="512.9434" fill="#E2E2F0" rx="8" ry="8" style="stroke:#181818;stroke-width:0.5;"/><path d="M22,520.9434 L22,547.9434 M9,528.9434 L35,528.9434 M22,547.9434 L9,562.9434 M22,547.9434 L35,562.9434 " fill="none" style="stroke:#181818;stroke-width:0.5;"/><rect fill="#E2E2F0" height="32.6211" rx="2.5" ry="2.5" style="stroke:#181818;stroke-width:0.5;" width="98" x="114" y="50"/><text fill="#000000" font-family="sans-serif" font-size="14" lengthAdjust="spacing" textLength="84" x="121" y="72.1074">&#20320;&#30340;&#32593;&#31449;&#21518;&#21488;</text><rect fill="#E2E2F0" height="32.6211" rx="2.5" ry="2.5" style="stroke:#181818;stroke-width:0.5;" width="98" x="114" y="485.8223"/><text fill="#000000" font-family="sans-serif" font-size="14" lengthAdjust="spacing" textLength="84" x="121" y="507.9297">&#20320;&#30340;&#32593;&#31449;&#21518;&#21488;</text><rect fill="#E2E2F0" height="32.6211" rx="2.5" ry="2.5" style="stroke:#181818;stroke-width:0.5;" width="84" x="249" y="50"/><text fill="#000000" font-family="sans-serif" font-size="14" lengthAdjust="spacing" textLength="70" x="256" y="72.1074">&#25903;&#20184;&#23453;&#32593;&#20851;</text><rect fill="#E2E2F0" height="32.6211" rx="2.5" ry="2.5" style="stroke:#181818;stroke-width:0.5;" width="84" x="249" y="485.8223"/><text fill="#000000" font-family="sans-serif" font-size="14" lengthAdjust="spacing" textLength="70" x="256" y="507.9297">&#25903;&#20184;&#23453;&#32593;&#20851;</text><polygon fill="#181818" points="151,112.9121,161,116.9121,151,120.9121,155,116.9121" style="stroke:#181818;stroke-width:1.0;"/><line style="stroke:#181818;stroke-width:1.0;" x1="22" x2="157" y1="116.9121" y2="116.9121"/><text fill="#000000" font-family="sans-serif" font-size="13" lengthAdjust="spacing" textLength="78" x="29" y="111.6494">&#21457;&#36215;&#25903;&#20184;&#35831;&#27714;</text><line style="stroke:#181818;stroke-width:1.0;" x1="163" x2="205" y1="148.2031" y2="148.2031"/><line style="stroke:#181818;stroke-width:1.0;" x1="205" x2="205" y1="148.2031" y2="161.2031"/><line style="stroke:#181818;stroke-width:1.0;" x1="164" x2="205" y1="161.2031" y2="161.2031"/><polygon fill="#181818" points="174,157.2031,164,161.2031,174,165.2031,170,161.2031" style="stroke:#181818;stroke-width:1.0;"/><text fill="#000000" font-family="sans-serif" font-size="13" lengthAdjust="spacing" textLength="52" x="170" y="142.9404">&#21019;&#24314;&#35746;&#21333;</text><polygon fill="#181818" points="279,188.4941,289,192.4941,279,196.4941,283,192.4941" style="stroke:#181818;stroke-width:1.0;"/><line style="stroke:#181818;stroke-width:1.0;" x1="163" x2="285" y1="192.4941" y2="192.4941"/><text fill="#000000" font-family="sans-serif" font-size="13" lengthAdjust="spacing" textLength="52" x="170" y="187.2314">&#35831;&#27714;&#25903;&#20184;</text><polygon fill="#181818" points="174,219.7852,164,223.7852,174,227.7852,170,223.7852" style="stroke:#181818;stroke-width:1.0;"/><line style="stroke:#181818;stroke-width:1.0;" x1="168" x2="290" y1="223.7852" y2="223.7852"/><text fill="#000000" font-family="sans-serif" font-size="13" lengthAdjust="spacing" textLength="104" x="180" y="218.5225">&#29983;&#25104;&#25903;&#20184;&#34920;&#21333;&#39029;&#38754;</text><polygon fill="#181818" points="33,251.0762,23,255.0762,33,259.0762,29,255.0762" style="stroke:#181818;stroke-width:1.0;"/><line style="stroke:#181818;stroke-width:1.0;" x1="27" x2="162" y1="255.0762" y2="255.0762"/><text fill="#000000" font-family="sans-serif" font-size="13" lengthAdjust="spacing" textLength="117" x="39" y="249.8135">&#24341;&#23548;&#29992;&#25143;&#21040;&#34920;&#21333;&#39029;&#38754;</text><polygon fill="#181818" points="279,282.3672,289,286.3672,279,290.3672,283,286.3672" style="stroke:#181818;stroke-width:1.0;"/><line style="stroke:#181818;stroke-width:1.0;" x1="22" x2="285" y1="286.3672" y2="286.3672"/><text fill="#000000" font-family="sans-serif" font-size="13" lengthAdjust="spacing" textLength="91" x="29" y="281.1045">&#36827;&#20837;&#24182;&#25552;&#20132;&#34920;&#21333;</text><polygon fill="#181818" points="33,313.6582,23,317.6582,33,321.6582,29,317.6582" style="stroke:#181818;stroke-width:1.0;"/><line style="stroke:#181818;stroke-width:1.0;" x1="27" x2="290" y1="317.6582" y2="317.6582"/><text fill="#000000" font-family="sans-serif" font-size="13" lengthAdjust="spacing" textLength="130" x="39" y="312.3955">&#36339;&#36716;&#21040;&#25903;&#20184;&#23453;&#25903;&#20184;&#39029;&#38754;</text><polygon fill="#181818" points="279,344.9492,289,348.9492,279,352.9492,283,348.9492" style="stroke:#181818;stroke-width:1.0;"/><line style="stroke:#181818;stroke-width:1.0;" x1="22" x2="285" y1="348.9492" y2="348.9492"/><text fill="#000000" font-family="sans-serif" font-size="13" lengthAdjust="spacing" textLength="52" x="29" y="343.6865">&#23436;&#25104;&#25903;&#20184;</text><polygon fill="#181818" points="174,376.2402,164,380.2402,174,384.2402,170,380.2402" style="stroke:#181818;stroke-width:1.0;"/><line style="stroke:#181818;stroke-width:1.0;" x1="168" x2="290" y1="380.2402" y2="380.2402"/><text fill="#000000" font-family="sans-serif" font-size="13" lengthAdjust="spacing" textLength="104" x="180" y="374.9775">&#22238;&#35843;&#36890;&#30693;&#25903;&#20184;&#32467;&#26524;</text><line style="stroke:#181818;stroke-width:1.0;" x1="163" x2="205" y1="411.5313" y2="411.5313"/><line style="stroke:#181818;stroke-width:1.0;" x1="205" x2="205" y1="411.5313" y2="424.5313"/><line style="stroke:#181818;stroke-width:1.0;" x1="164" x2="205" y1="424.5313" y2="424.5313"/><polygon fill="#181818" points="174,420.5313,164,424.5313,174,428.5313,170,424.5313" style="stroke:#181818;stroke-width:1.0;"/><text fill="#000000" font-family="sans-serif" font-size="13" lengthAdjust="spacing" textLength="104" x="170" y="406.2686">&#39564;&#35777;&#25903;&#20184;&#26159;&#21542;&#25104;&#21151;</text><line style="stroke:#181818;stroke-width:1.0;" x1="163" x2="205" y1="455.8223" y2="455.8223"/><line style="stroke:#181818;stroke-width:1.0;" x1="205" x2="205" y1="455.8223" y2="468.8223"/><line style="stroke:#181818;stroke-width:1.0;" x1="164" x2="205" y1="468.8223" y2="468.8223"/><polygon fill="#181818" points="174,464.8223,164,468.8223,174,472.8223,170,468.8223" style="stroke:#181818;stroke-width:1.0;"/><text fill="#000000" font-family="sans-serif" font-size="13" lengthAdjust="spacing" textLength="78" x="170" y="450.5596">&#36827;&#34892;&#35746;&#21333;&#32467;&#31639;</text><!--SRC=[TP3FJeD048VlFCMcTr-W1zy5iOT6KnkA1s_-Qq8C2eqqrcABDDOqQW3JL68fyMMOtUKjN9oMG8AtpSuttypyP4KxKGcp5rIFYDmZfxsMAdLbLMihxQxSqKWZJPxP-9eb0_R-2DOTc64Z1mzavQZLEQoor0xIU0J-HE3GN_w1yh4edabIRYPx-xl69W5pm5SHjl0Wef-NqhPMnNG7uZNtPt0xB0FeRH9iHOs4dvL-PhjKjxPZl8MmPDugcypAhdmtCMapX623MO0ULk3TziNK7mVwS_Z-egQLhb-GBOr78u-MFFaGhY8OVFmZ1TyeLgqx1Pmf3w-oyp5pvqYn-9vEdsfpozuC7bmWHaS1MA_23JTkBIpEuPw18Gidynz-0G00]--></g></svg>