<?xml version="1.0" encoding="us-ascii" standalone="no"?><svg xmlns="http://www.w3.org/2000/svg" xmlns:xlink="http://www.w3.org/1999/xlink" contentStyleType="text/css" height="492px" preserveAspectRatio="none" style="width:400px;height:492px;background:#FFFFFF;" version="1.1" viewBox="0 0 400 492" width="400px" zoomAndPan="magnify"><defs/><g><line style="stroke:#181818;stroke-width:0.5;stroke-dasharray:5.0,5.0;" x1="26" x2="26" y1="38.6211" y2="454.8223"/><line style="stroke:#181818;stroke-width:0.5;stroke-dasharray:5.0,5.0;" x1="154" x2="154" y1="38.6211" y2="454.8223"/><line style="stroke:#181818;stroke-width:0.5;stroke-dasharray:5.0,5.0;" x1="308" x2="308" y1="38.6211" y2="454.8223"/><rect fill="#E2E2F0" height="32.6211" rx="2.5" ry="2.5" style="stroke:#181818;stroke-width:0.5;" width="42" x="5" y="5"/><text fill="#000000" font-family="sans-serif" font-size="14" lengthAdjust="spacing" textLength="28" x="12" y="27.1074">&#29992;&#25143;</text><rect fill="#E2E2F0" height="32.6211" rx="2.5" ry="2.5" style="stroke:#181818;stroke-width:0.5;" width="42" x="5" y="453.8223"/><text fill="#000000" font-family="sans-serif" font-size="14" lengthAdjust="spacing" textLength="28" x="12" y="475.9297">&#29992;&#25143;</text><rect fill="#E2E2F0" height="32.6211" rx="2.5" ry="2.5" style="stroke:#181818;stroke-width:0.5;" width="70" x="119" y="5"/><text fill="#000000" font-family="sans-serif" font-size="14" lengthAdjust="spacing" textLength="56" x="126" y="27.1074">&#21830;&#25143;&#31995;&#32479;</text><rect fill="#E2E2F0" height="32.6211" rx="2.5" ry="2.5" style="stroke:#181818;stroke-width:0.5;" width="70" x="119" y="453.8223"/><text fill="#000000" font-family="sans-serif" font-size="14" lengthAdjust="spacing" textLength="56" x="126" y="475.9297">&#21830;&#25143;&#31995;&#32479;</text><rect fill="#E2E2F0" height="32.6211" rx="2.5" ry="2.5" style="stroke:#181818;stroke-width:0.5;" width="70" x="273" y="5"/><text fill="#000000" font-family="sans-serif" font-size="14" lengthAdjust="spacing" textLength="56" x="280" y="27.1074">&#25903;&#20184;&#31995;&#32479;</text><rect fill="#E2E2F0" height="32.6211" rx="2.5" ry="2.5" style="stroke:#181818;stroke-width:0.5;" width="70" x="273" y="453.8223"/><text fill="#000000" font-family="sans-serif" font-size="14" lengthAdjust="spacing" textLength="56" x="280" y="475.9297">&#25903;&#20184;&#31995;&#32479;</text><polygon fill="#181818" points="142,67.9121,152,71.9121,142,75.9121,146,71.9121" style="stroke:#181818;stroke-width:1.0;"/><line style="stroke:#181818;stroke-width:1.0;" x1="26" x2="148" y1="71.9121" y2="71.9121"/><text fill="#000000" font-family="sans-serif" font-size="13" lengthAdjust="spacing" textLength="78" x="33" y="66.6494">&#21457;&#36215;&#25903;&#20184;&#35831;&#27714;</text><line style="stroke:#181818;stroke-width:1.0;" x1="154" x2="196" y1="103.2031" y2="103.2031"/><line style="stroke:#181818;stroke-width:1.0;" x1="196" x2="196" y1="103.2031" y2="116.2031"/><line style="stroke:#181818;stroke-width:1.0;" x1="155" x2="196" y1="116.2031" y2="116.2031"/><polygon fill="#181818" points="165,112.2031,155,116.2031,165,120.2031,161,116.2031" style="stroke:#181818;stroke-width:1.0;"/><text fill="#000000" font-family="sans-serif" font-size="13" lengthAdjust="spacing" textLength="52" x="161" y="97.9404">&#21019;&#24314;&#35746;&#21333;</text><polygon fill="#181818" points="296,143.4941,306,147.4941,296,151.4941,300,147.4941" style="stroke:#181818;stroke-width:1.0;"/><line style="stroke:#181818;stroke-width:1.0;" x1="154" x2="302" y1="147.4941" y2="147.4941"/><text fill="#000000" font-family="sans-serif" font-size="13" lengthAdjust="spacing" textLength="78" x="161" y="142.2314">&#36716;&#21457;&#25903;&#20184;&#35831;&#27714;</text><line style="stroke:#181818;stroke-width:1.0;" x1="308" x2="350" y1="178.7852" y2="178.7852"/><line style="stroke:#181818;stroke-width:1.0;" x1="350" x2="350" y1="178.7852" y2="191.7852"/><line style="stroke:#181818;stroke-width:1.0;" x1="309" x2="350" y1="191.7852" y2="191.7852"/><polygon fill="#181818" points="319,187.7852,309,191.7852,319,195.7852,315,191.7852" style="stroke:#181818;stroke-width:1.0;"/><text fill="#000000" font-family="sans-serif" font-size="13" lengthAdjust="spacing" textLength="78" x="315" y="173.5225">&#29983;&#25104;&#25903;&#20184;&#27969;&#31243;</text><polygon fill="#181818" points="165,219.0762,155,223.0762,165,227.0762,161,223.0762" style="stroke:#181818;stroke-width:1.0;"/><line style="stroke:#181818;stroke-width:1.0;" x1="159" x2="307" y1="223.0762" y2="223.0762"/><text fill="#000000" font-family="sans-serif" font-size="13" lengthAdjust="spacing" textLength="104" x="171" y="217.8135">&#36820;&#22238;&#25903;&#20184;&#27969;&#31243;&#20449;&#24687;</text><polygon fill="#181818" points="37,250.3672,27,254.3672,37,258.3672,33,254.3672" style="stroke:#181818;stroke-width:1.0;"/><line style="stroke:#181818;stroke-width:1.0;" x1="31" x2="153" y1="254.3672" y2="254.3672"/><text fill="#000000" font-family="sans-serif" font-size="13" lengthAdjust="spacing" textLength="104" x="43" y="249.1045">&#24341;&#23548;&#29992;&#25143;&#36827;&#34892;&#25903;&#20184;</text><polygon fill="#181818" points="296,281.6582,306,285.6582,296,289.6582,300,285.6582" style="stroke:#181818;stroke-width:1.0;"/><line style="stroke:#181818;stroke-width:1.0;" x1="26" x2="302" y1="285.6582" y2="285.6582"/><text fill="#000000" font-family="sans-serif" font-size="13" lengthAdjust="spacing" textLength="52" x="33" y="280.3955">&#23436;&#25104;&#25903;&#20184;</text><polygon fill="#181818" points="165,312.9492,155,316.9492,165,320.9492,161,316.9492" style="stroke:#181818;stroke-width:1.0;"/><line style="stroke:#181818;stroke-width:1.0;" x1="159" x2="307" y1="316.9492" y2="316.9492"/><text fill="#000000" font-family="sans-serif" font-size="13" lengthAdjust="spacing" textLength="130" x="171" y="311.6865">&#36890;&#36807;&#22238;&#35843;&#36890;&#30693;&#25903;&#20184;&#32467;&#26524;</text><line style="stroke:#181818;stroke-width:1.0;" x1="154" x2="196" y1="348.2402" y2="348.2402"/><line style="stroke:#181818;stroke-width:1.0;" x1="196" x2="196" y1="348.2402" y2="361.2402"/><line style="stroke:#181818;stroke-width:1.0;" x1="155" x2="196" y1="361.2402" y2="361.2402"/><polygon fill="#181818" points="165,357.2402,155,361.2402,165,365.2402,161,361.2402" style="stroke:#181818;stroke-width:1.0;"/><text fill="#000000" font-family="sans-serif" font-size="13" lengthAdjust="spacing" textLength="104" x="161" y="342.9775">&#39564;&#35777;&#25903;&#20184;&#26159;&#21542;&#25104;&#21151;</text><polygon fill="#181818" points="37,388.5313,27,392.5313,37,396.5313,33,392.5313" style="stroke:#181818;stroke-width:1.0;"/><line style="stroke:#181818;stroke-width:1.0;" x1="31" x2="153" y1="392.5313" y2="392.5313"/><text fill="#000000" font-family="sans-serif" font-size="13" lengthAdjust="spacing" textLength="78" x="43" y="387.2686">&#26174;&#31034;&#25903;&#20184;&#32467;&#26524;</text><line style="stroke:#181818;stroke-width:1.0;" x1="154" x2="196" y1="423.8223" y2="423.8223"/><line style="stroke:#181818;stroke-width:1.0;" x1="196" x2="196" y1="423.8223" y2="436.8223"/><line style="stroke:#181818;stroke-width:1.0;" x1="155" x2="196" y1="436.8223" y2="436.8223"/><polygon fill="#181818" points="165,432.8223,155,436.8223,165,440.8223,161,436.8223" style="stroke:#181818;stroke-width:1.0;"/><text fill="#000000" font-family="sans-serif" font-size="13" lengthAdjust="spacing" textLength="78" x="161" y="418.5596">&#36827;&#34892;&#21518;&#32493;&#22788;&#29702;</text><!--SRC=[ZP31IiD048RlUOgbTr_0W-yIIi0UAY6j1sz6fGQD6ca2mKX3fKeHxIfI0jtMl4ndT_eMtRenxee5RmF_D_y__xYsrsqrMwvzq2KY7lEW87Q777OSpt8rgG59JshYWmcMDpP8s_6Q-r8oCHxJ9KirpBMFsewah8qbsTchzyWkWPjRd1Pg1Md1tq-iMlr51Xcm6KuUu2encCfU8hXuaNw6sRTeS2BEUH0fZazzCRxKEIqJonYoWGukoo7tgP7_rKhUDq-0pjN_iCnm6AgzklLFFap2EdzBykhu3ijp6Ovlft8M-MFrLjRdW_jjFrezXqZzwjwKGlGaS-0Y_-jUddwAqUm_hgeDHDU2lSBeJ4IzDG00]--></g></svg>